<svg width="1440" height="780" viewBox="0 0 1440 780" fill="none" xmlns="http://www.w3.org/2000/svg">
<path opacity="0.3" fill-rule="evenodd" clip-rule="evenodd" d="M450.061 657.238L798.736 750.665C817.336 755.649 837.182 750.331 850.799 736.715L1106.05 481.467C1119.66 467.851 1124.98 448.005 1120 429.404L1026.57 80.7301C1021.59 62.1297 1007.06 47.6012 988.456 42.6172L639.782 -50.8098C621.182 -55.7937 601.335 -50.4759 587.719 -36.8595L332.472 218.388C318.855 232.004 313.537 251.851 318.521 270.451L411.948 619.125C416.932 637.726 431.461 652.254 450.061 657.238ZM798.477 751.631C817.422 756.707 837.637 751.291 851.506 737.422L1106.75 482.175C1120.62 468.306 1126.04 448.091 1120.96 429.145L1027.54 80.4713C1022.46 61.5258 1007.66 46.7277 988.715 41.6513L640.041 -51.7757C621.095 -56.8521 600.881 -51.4356 587.012 -37.5666L331.765 217.681C317.896 231.55 312.479 251.764 317.555 270.71L410.982 619.384C416.059 638.33 430.857 653.128 449.802 658.204L798.477 751.631Z" fill="black"/>
<path opacity="0.25" fill-rule="evenodd" clip-rule="evenodd" d="M604.646 928.836L1107.97 793.97C1134.97 786.735 1156.07 765.643 1163.3 738.639L1298.17 235.315C1305.4 208.312 1297.68 179.499 1277.91 159.732L909.456 -208.727C889.688 -228.495 860.875 -236.215 833.872 -228.98L330.548 -94.1145C303.544 -86.879 282.452 -65.787 275.217 -38.7835L140.351 464.541C133.116 491.544 140.836 520.356 160.604 540.124L529.063 908.583C548.831 928.351 577.643 936.071 604.646 928.836ZM1108.23 794.936C1135.58 787.608 1156.94 766.247 1164.27 738.898L1299.13 235.574C1306.46 208.225 1298.64 179.045 1278.62 159.024L910.163 -209.434C890.142 -229.455 860.962 -237.274 833.613 -229.946L330.289 -95.0805C302.941 -87.7525 281.579 -66.3909 274.251 -39.0424L139.386 464.282C132.058 491.63 139.876 520.811 159.897 540.831L528.356 909.29C548.376 929.311 577.557 937.13 604.905 929.802L1108.23 794.936Z" fill="black"/>
<path opacity="0.12" fill-rule="evenodd" clip-rule="evenodd" d="M217.27 923.567L867.174 1097.71C902.142 1107.08 939.452 1097.08 965.051 1071.48L1440.81 595.72C1466.41 570.122 1476.41 532.811 1467.04 497.843L1292.9 -152.061C1283.53 -187.029 1256.22 -214.342 1221.25 -223.711L571.343 -397.852C536.375 -407.222 499.065 -397.225 473.467 -371.627L-2.29589 104.136C-27.8942 129.735 -37.8915 167.045 -28.5218 202.013L145.619 851.917C154.989 886.885 182.302 914.198 217.27 923.567ZM866.915 1098.67C902.228 1108.14 939.907 1098.04 965.758 1072.19L1441.52 596.427C1467.37 570.576 1477.47 532.897 1468.01 497.584L1293.86 -152.319C1284.4 -187.632 1256.82 -215.215 1221.51 -224.677L571.602 -398.818C536.289 -408.28 498.611 -398.185 472.76 -372.334L-3.00298 103.429C-28.8539 129.28 -38.9499 166.959 -29.4878 202.272L144.654 852.176C154.116 887.489 181.698 915.071 217.011 924.533L866.915 1098.67Z" fill="black"/>
</svg>
